<svg width="120" height="39" viewBox="0 0 120 39" fill="none" xmlns="http://www.w3.org/2000/svg">
<g clip-path="url(#clip0_2663_11913)">
<path d="M45.1182 27.6209C43.8784 27.6209 42.7627 27.3558 41.771 26.8261C40.7946 26.2813 40.0276 25.5319 39.4696 24.5782C38.9118 23.6247 38.6328 22.5499 38.6328 21.3541C38.6328 20.1584 38.9118 19.0836 39.4696 18.1299C40.0276 17.1763 40.7946 16.4346 41.771 15.9048C42.7627 15.3599 43.8784 15.0874 45.1182 15.0874C46.3735 15.0874 47.4893 15.3599 48.4655 15.9048C49.4419 16.4346 50.2012 17.1763 50.7436 18.1299C51.286 19.0685 51.5572 20.1432 51.5572 21.3541C51.5572 21.7023 51.5339 22.0579 51.4874 22.4212H42.0266C42.2125 23.1327 42.5768 23.6852 43.1191 24.0787C43.6616 24.4723 44.3278 24.6692 45.1182 24.6692C45.6452 24.6692 46.1255 24.5782 46.5594 24.3966C47.0088 24.1998 47.3576 23.9426 47.6054 23.6247H51.2084C50.7745 24.8507 50.0075 25.827 48.9072 26.5536C47.8069 27.2651 46.5439 27.6209 45.1182 27.6209ZM48.2332 20.2189C48.0471 19.5377 47.683 19.0078 47.1405 18.6294C46.5982 18.2358 45.9241 18.0391 45.1182 18.0391C44.3433 18.0391 43.6847 18.2358 43.1424 18.6294C42.6154 19.0078 42.2513 19.5377 42.0498 20.2189H48.2332Z" fill="#1E1E1E"/>
<path d="M60.8537 27.6207C59.2886 27.6207 57.8783 27.2725 56.6231 26.5762C55.3679 25.8648 54.3839 24.8884 53.671 23.6471C52.9736 22.3908 52.625 20.983 52.625 19.424C52.625 17.8649 52.9736 16.4647 53.671 15.2235C54.3839 13.9671 55.3679 12.9908 56.6231 12.2945C57.8783 11.583 59.2886 11.2273 60.8537 11.2273C62.202 11.2273 63.4341 11.4846 64.5497 11.9993C65.681 12.5139 66.6264 13.2481 67.3857 14.2017C68.1451 15.1553 68.6564 16.2603 68.9199 17.5167H65.2704C64.9604 16.6236 64.4103 15.9122 63.62 15.3824C62.8451 14.8526 61.9464 14.5877 60.9235 14.5877C60.0248 14.5877 59.2188 14.7996 58.5061 15.2235C57.8087 15.6322 57.2585 16.2074 56.8556 16.9491C56.4527 17.6757 56.2512 18.5007 56.2512 19.424C56.2512 20.3474 56.4527 21.1799 56.8556 21.9216C57.2585 22.6482 57.8087 23.2233 58.5061 23.6471C59.2188 24.056 60.0248 24.2603 60.9235 24.2603C61.9619 24.2603 62.8761 23.9801 63.6664 23.4202C64.4722 22.86 65.0302 22.1108 65.3402 21.1722H68.9432C68.6952 22.459 68.1915 23.5942 67.4322 24.578C66.6883 25.5469 65.7431 26.2962 64.5963 26.8259C63.4651 27.3557 62.2175 27.6207 60.8537 27.6207Z" fill="#1E1E1E"/>
<path d="M76.0893 27.6209C74.8804 27.6209 73.8035 27.3484 72.8582 26.8033C71.9128 26.2585 71.1768 25.5091 70.6498 24.5556C70.1385 23.6019 69.8828 22.5348 69.8828 21.3541C69.8828 20.1432 70.1463 19.0608 70.6731 18.1073C71.2155 17.1536 71.9593 16.4119 72.9047 15.8821C73.8499 15.3523 74.9116 15.0874 76.0893 15.0874C77.639 15.0874 78.9717 15.5718 80.0874 16.5406L80.2037 15.3372H83.0862V27.3711H80.2037L80.0874 26.1677C79.5451 26.6369 78.933 27.0002 78.2511 27.2576C77.5692 27.4997 76.8487 27.6209 76.0893 27.6209ZM73.2533 21.3541C73.2533 22.2925 73.5555 23.0645 74.1599 23.6701C74.7798 24.2756 75.5702 24.5782 76.5309 24.5782C77.4763 24.5782 78.2511 24.2756 78.8554 23.6701C79.4753 23.0645 79.7853 22.2925 79.7853 21.3541C79.7853 20.4156 79.4753 19.6436 78.8554 19.0382C78.2511 18.4327 77.4763 18.1299 76.5309 18.1299C75.5702 18.1299 74.7798 18.4327 74.1599 19.0382C73.5555 19.6436 73.2533 20.4156 73.2533 21.3541Z" fill="#1E1E1E"/>
<path d="M85.7734 15.3372H88.8651L88.9812 16.6768C89.3998 16.1773 89.8956 15.7989 90.4689 15.5415C91.0424 15.2842 91.67 15.1555 92.3519 15.1555C92.8013 15.1555 93.274 15.2161 93.7698 15.3372V18.3343C93.1809 18.2283 92.7083 18.1753 92.3519 18.1753C91.3445 18.1753 90.5466 18.4555 89.9576 19.0154C89.3841 19.5603 89.0975 20.3248 89.0975 21.3088V27.3711H85.7734V15.3372Z" fill="#1E1E1E"/>
<path d="M100.246 27.6209C99.0529 27.6209 97.9836 27.3484 97.0383 26.8034C96.1084 26.2434 95.3879 25.4866 94.8764 24.5329C94.365 23.5793 94.1094 22.5197 94.1094 21.3542C94.1094 20.1584 94.3729 19.0837 94.8997 18.13C95.4265 17.1764 96.1549 16.4347 97.0848 15.9049C98.0145 15.3599 99.0684 15.0875 100.246 15.0875C101.656 15.0875 102.896 15.4886 103.965 16.2909V11.4773H107.289V27.3712H104.407L104.291 26.1678C103.748 26.637 103.129 27.0003 102.431 27.2576C101.749 27.4997 101.021 27.6209 100.246 27.6209ZM97.4567 21.3542C97.4567 22.2926 97.7589 23.0646 98.3633 23.6701C98.9831 24.2757 99.7657 24.5783 100.711 24.5783C101.672 24.5783 102.454 24.2757 103.059 23.6701C103.679 23.0646 103.989 22.2926 103.989 21.3542C103.989 20.4156 103.679 19.6437 103.059 19.0383C102.454 18.4327 101.672 18.13 100.711 18.13C99.7657 18.13 98.9831 18.4327 98.3633 19.0383C97.7589 19.6437 97.4567 20.4156 97.4567 21.3542Z" fill="#1E1E1E"/>
<path d="M114.448 27.5981C112.883 27.5981 111.62 27.2425 110.659 26.531C109.698 25.8044 109.187 24.8205 109.125 23.5793H112.449C112.48 24.0031 112.674 24.3285 113.03 24.5556C113.402 24.7827 113.898 24.8961 114.518 24.8961C115.107 24.8961 115.579 24.7978 115.936 24.601C116.292 24.4043 116.47 24.1393 116.47 23.8062C116.47 23.4734 116.3 23.2235 115.959 23.057C115.618 22.8904 114.96 22.7391 113.983 22.603C112.356 22.391 111.163 21.99 110.404 21.3995C109.644 20.794 109.264 19.9615 109.264 18.9019C109.264 17.7364 109.737 16.813 110.682 16.1319C111.643 15.4356 112.891 15.0874 114.425 15.0874C115.37 15.0874 116.222 15.2539 116.982 15.5869C117.741 15.9048 118.338 16.3589 118.772 16.9493C119.221 17.5244 119.469 18.1904 119.516 18.9473H116.308C116.246 18.5689 116.052 18.2814 115.727 18.0845C115.401 17.8877 114.952 17.7894 114.378 17.7894C113.805 17.7894 113.363 17.8802 113.053 18.0617C112.759 18.2283 112.612 18.4781 112.612 18.8111C112.612 19.1441 112.798 19.409 113.17 19.6059C113.542 19.7874 114.2 19.9389 115.145 20.0599C116.695 20.2415 117.857 20.635 118.632 21.2406C119.423 21.831 119.818 22.6635 119.818 23.7382C119.818 24.9189 119.322 25.8573 118.33 26.5536C117.338 27.2499 116.044 27.5981 114.448 27.5981Z" fill="#1E1E1E"/>
<path d="M18.0367 33.8623L13.6748 38.1186C12.6772 39.0919 11.0584 39.0919 10.0609 38.1184L4.21094 32.4094L10.3703 26.3989L18.0367 33.8623Z" fill="#5744FF"/>
<path d="M8.14853 24.2417L1.99192 30.2493L0.746324 29.0336C-0.24898 28.0622 -0.248712 26.4887 0.74675 25.5172L5.09718 21.2722L8.14853 24.2417Z" fill="#5744FF"/>
<path d="M29.8831 22.3841L8.875 1.94096L10.1226 0.727313C11.1195 -0.242548 12.7342 -0.242421 13.731 0.727593L31.1251 17.654C32.1239 18.6258 32.1239 20.2029 31.1253 21.1751L29.8831 22.3841Z" fill="#5744FF"/>
<path d="M21.7988 30.2471C20.8017 31.2171 19.1871 31.2171 18.1902 30.2471L0.796077 13.3203C-0.202893 12.3483 -0.202854 10.7708 0.796164 9.79881L6.65508 4.09839L27.6631 24.5408L21.7988 30.2471Z" fill="#5744FF"/>
</g>
<defs>
<clipPath id="clip0_2663_11913">
<rect width="120" height="39" fill="white"/>
</clipPath>
</defs>
</svg>
