<svg width="38" height="38" viewBox="0 0 38 38" fill="none" xmlns="http://www.w3.org/2000/svg">
<path d="M33.25 9.50005C33.2496 8.61174 33 7.74136 32.5298 6.98775C32.0595 6.23414 31.3873 5.6275 30.5896 5.23673C29.7918 4.84596 28.9005 4.68672 28.0168 4.77709C27.1331 4.86746 26.2924 5.20382 25.5903 5.74797C24.8882 6.29212 24.3527 7.02226 24.0447 7.85546C23.7367 8.68866 23.6685 9.59154 23.8479 10.4615C24.0272 11.3316 24.4469 12.1338 25.0594 12.7773C25.6718 13.4207 26.4524 13.8795 27.3125 14.1016V16.625C27.3125 16.94 27.1874 17.242 26.9647 17.4647C26.742 17.6874 26.44 17.8125 26.125 17.8125H11.875C11.5601 17.8125 11.258 17.6874 11.0353 17.4647C10.8126 17.242 10.6875 16.94 10.6875 16.625V14.1016C11.8069 13.8126 12.7825 13.1252 13.4314 12.1684C14.0802 11.2115 14.3578 10.0508 14.2122 8.90392C14.0665 7.75702 13.5075 6.70262 12.64 5.93835C11.7726 5.17409 10.6561 4.75244 9.50001 4.75244C8.34389 4.75244 7.22746 5.17409 6.35999 5.93835C5.49251 6.70262 4.93355 7.75702 4.78787 8.90392C4.64219 10.0508 4.91981 11.2115 5.56867 12.1684C6.21754 13.1252 7.1931 13.8126 8.31251 14.1016V16.625C8.31251 17.5699 8.68785 18.476 9.35594 19.1441C10.024 19.8122 10.9302 20.1875 11.875 20.1875H17.8125V23.8985C16.6931 24.1875 15.7175 24.8749 15.0687 25.8317C14.4198 26.7886 14.1422 27.9493 14.2879 29.0962C14.4335 30.2431 14.9925 31.2975 15.86 32.0617C16.7275 32.826 17.8439 33.2477 19 33.2477C20.1561 33.2477 21.2726 32.826 22.14 32.0617C23.0075 31.2975 23.5665 30.2431 23.7122 29.0962C23.8578 27.9493 23.5802 26.7886 22.9314 25.8317C22.2825 24.8749 21.3069 24.1875 20.1875 23.8985V20.1875H26.125C27.0698 20.1875 27.976 19.8122 28.6441 19.1441C29.3122 18.476 29.6875 17.5699 29.6875 16.625V14.1016C30.7068 13.8369 31.6094 13.2415 32.2541 12.4088C32.8988 11.5761 33.249 10.5531 33.25 9.50005ZM7.12501 9.50005C7.12501 9.03032 7.2643 8.57114 7.52527 8.18057C7.78624 7.79 8.15716 7.48559 8.59114 7.30583C9.02511 7.12608 9.50265 7.07904 9.96335 7.17068C10.4241 7.26232 10.8472 7.48852 11.1794 7.82067C11.5115 8.15282 11.7377 8.576 11.8294 9.03671C11.921 9.49741 11.874 9.97495 11.6942 10.4089C11.5145 10.8429 11.2101 11.2138 10.8195 11.4748C10.4289 11.7358 9.96974 11.875 9.50001 11.875C8.87012 11.875 8.26603 11.6248 7.82063 11.1794C7.37523 10.734 7.12501 10.1299 7.12501 9.50005ZM21.375 28.5C21.375 28.9698 21.2357 29.429 20.9748 29.8195C20.7138 30.2101 20.3429 30.5145 19.9089 30.6943C19.4749 30.874 18.9974 30.9211 18.5367 30.8294C18.076 30.7378 17.6528 30.5116 17.3206 30.1794C16.9885 29.8473 16.7623 29.4241 16.6706 28.9634C16.579 28.5027 16.626 28.0252 16.8058 27.5912C16.9856 27.1572 17.29 26.7863 17.6805 26.5253C18.0711 26.2643 18.5303 26.125 19 26.125C19.6299 26.125 20.234 26.3753 20.6794 26.8207C21.1248 27.2661 21.375 27.8702 21.375 28.5ZM28.5 11.875C28.0303 11.875 27.5711 11.7358 27.1805 11.4748C26.79 11.2138 26.4856 10.8429 26.3058 10.4089C26.126 9.97495 26.079 9.49741 26.1706 9.03671C26.2623 8.576 26.4885 8.15282 26.8206 7.82067C27.1528 7.48852 27.576 7.26232 28.0367 7.17068C28.4974 7.07904 28.9749 7.12608 29.4089 7.30583C29.8429 7.48559 30.2138 7.79 30.4748 8.18057C30.7357 8.57114 30.875 9.03032 30.875 9.50005C30.875 10.1299 30.6248 10.734 30.1794 11.1794C29.734 11.6248 29.1299 11.875 28.5 11.875Z" fill="#5D43FF"/>
</svg>
