<svg width="38" height="38" viewBox="0 0 38 38" fill="none" xmlns="http://www.w3.org/2000/svg">
<path d="M22.2079 12.7226L8.90791 25.7851C8.6858 26.0036 8.38673 26.126 8.07518 26.126C7.76363 26.126 7.46455 26.0036 7.24244 25.7851L1.54244 20.1875C1.43123 20.0782 1.34266 19.948 1.28176 19.8044C1.22087 19.6608 1.18885 19.5066 1.18754 19.3507C1.18623 19.1947 1.21565 19.04 1.27413 18.8954C1.3326 18.7508 1.41899 18.6192 1.52834 18.508C1.6377 18.3967 1.76789 18.3082 1.91148 18.2473C2.05507 18.1864 2.20924 18.1544 2.36521 18.1531C2.52117 18.1517 2.67586 18.1812 2.82045 18.2396C2.96505 18.2981 3.0967 18.3845 3.20791 18.4939L8.07518 23.2735L20.5439 11.0274C20.7687 10.8066 21.072 10.6841 21.3872 10.6869C21.5432 10.6882 21.6974 10.7203 21.841 10.7813C21.9847 10.8423 22.1149 10.931 22.2242 11.0423C22.3336 11.1536 22.42 11.2853 22.4784 11.43C22.5368 11.5747 22.5662 11.7295 22.5648 11.8855C22.5634 12.0416 22.5313 12.1958 22.4704 12.3394C22.4094 12.483 22.3207 12.6132 22.2094 12.7226H22.2079ZM36.4728 11.0423C36.3634 10.9309 36.2333 10.8421 36.0896 10.7811C35.946 10.7201 35.7917 10.6879 35.6357 10.6866C35.4796 10.6852 35.3248 10.7146 35.1801 10.7731C35.0354 10.8316 34.9037 10.918 34.7924 11.0274L22.3237 23.2735L19.5286 20.5274C19.3038 20.3068 19.0006 20.1845 18.6856 20.1874C18.3706 20.1903 18.0697 20.3182 17.849 20.543C17.6284 20.7678 17.5061 21.0711 17.509 21.386C17.5119 21.701 17.6398 22.0019 17.8646 22.2226L21.491 25.7851C21.7131 26.0036 22.0121 26.126 22.3237 26.126C22.6352 26.126 22.9343 26.0036 23.1564 25.7851L36.4564 12.7226C36.5679 12.6134 36.6568 12.4833 36.7179 12.3397C36.7791 12.1961 36.8114 12.0419 36.8129 11.8858C36.8144 11.7298 36.7851 11.5749 36.7268 11.4302C36.6684 11.2855 36.5821 11.1536 36.4728 11.0423Z" fill="#5D43FF"/>
</svg>
