<svg width="38" height="38" viewBox="0 0 38 38" fill="none" xmlns="http://www.w3.org/2000/svg">
<path d="M19 16.625C18.0019 16.6253 17.0373 16.9848 16.2824 17.6378C15.5275 18.2907 15.0328 19.1935 14.8887 20.1812C14.7446 21.1688 14.9607 22.1753 15.4976 23.0168C16.0344 23.8582 16.8561 24.4783 17.8125 24.7638V27.3125C17.8125 27.6274 17.9376 27.9295 18.1603 28.1522C18.383 28.3749 18.6851 28.5 19 28.5C19.3149 28.5 19.617 28.3749 19.8397 28.1522C20.0624 27.9295 20.1875 27.6274 20.1875 27.3125V24.7638C21.1439 24.4783 21.9656 23.8582 22.5024 23.0168C23.0393 22.1753 23.2554 21.1688 23.1113 20.1812C22.9672 19.1935 22.4725 18.2907 21.7176 17.6378C20.9627 16.9848 19.9981 16.6253 19 16.625ZM19 22.5625C18.6477 22.5625 18.3033 22.458 18.0104 22.2623C17.7175 22.0666 17.4892 21.7884 17.3543 21.4629C17.2195 21.1374 17.1842 20.7793 17.253 20.4337C17.3217 20.0882 17.4914 19.7708 17.7405 19.5217C17.9896 19.2726 18.307 19.103 18.6525 19.0342C18.998 18.9655 19.3562 19.0008 19.6817 19.1356C20.0071 19.2704 20.2853 19.4987 20.4811 19.7916C20.6768 20.0846 20.7812 20.429 20.7812 20.7812C20.7812 21.2537 20.5936 21.7067 20.2595 22.0408C19.9255 22.3748 19.4724 22.5625 19 22.5625ZM30.875 11.875H26.125V8.3125C26.125 6.42283 25.3743 4.61056 24.0381 3.27436C22.7019 1.93817 20.8897 1.1875 19 1.1875C17.1103 1.1875 15.2981 1.93817 13.9619 3.27436C12.6257 4.61056 11.875 6.42283 11.875 8.3125V11.875H7.125C6.49511 11.875 5.89102 12.1252 5.44562 12.5706C5.00022 13.016 4.75 13.6201 4.75 14.25V30.875C4.75 31.5049 5.00022 32.109 5.44562 32.5544C5.89102 32.9998 6.49511 33.25 7.125 33.25H30.875C31.5049 33.25 32.109 32.9998 32.5544 32.5544C32.9998 32.109 33.25 31.5049 33.25 30.875V14.25C33.25 13.6201 32.9998 13.016 32.5544 12.5706C32.109 12.1252 31.5049 11.875 30.875 11.875ZM14.25 8.3125C14.25 7.05272 14.7504 5.84454 15.6412 4.95374C16.532 4.06294 17.7402 3.5625 19 3.5625C20.2598 3.5625 21.468 4.06294 22.3588 4.95374C23.2496 5.84454 23.75 7.05272 23.75 8.3125V11.875H14.25V8.3125ZM30.875 30.875H7.125V14.25H30.875V30.875Z" fill="#5D43FF"/>
</svg>
