<svg width="25" height="24" viewBox="0 0 25 24" fill="none" xmlns="http://www.w3.org/2000/svg">
<path d="M12.5625 15.6797C14.5947 15.6797 16.2422 14.0322 16.2422 12C16.2422 9.96776 14.5947 8.32031 12.5625 8.32031C10.5303 8.32031 8.88281 9.96776 8.88281 12C8.88281 14.0322 10.5303 15.6797 12.5625 15.6797Z" stroke="#5744FF" stroke-width="1.8" stroke-miterlimit="10" stroke-linecap="round" stroke-linejoin="round"/>
<path d="M0.898438 12.9689L0.898438 10.9178C0.898438 9.70581 1.87545 8.70358 3.08235 8.70358C5.16281 8.70358 6.01338 7.21188 4.9674 5.38221C4.3697 4.33336 4.72602 2.96986 5.772 2.36385L7.76051 1.21012C8.66855 0.662385 9.84097 0.988695 10.3812 1.90935L10.5076 2.13078C11.5421 3.96044 13.2433 3.96044 14.2892 2.13078L14.4157 1.90935C14.9559 0.988695 16.1283 0.662385 17.0364 1.21012L19.0249 2.36385C20.0709 2.96986 20.4272 4.33336 19.8295 5.38221C18.7835 7.21188 19.6341 8.70358 21.7145 8.70358C22.9099 8.70358 23.8984 9.69416 23.8984 10.9178V12.9689C23.8984 14.1809 22.9214 15.1831 21.7145 15.1831C19.6341 15.1831 18.7835 16.6748 19.8295 18.5045C20.4272 19.565 20.0709 20.9169 19.0249 21.5229L17.0364 22.6766C16.1283 23.2243 14.9559 22.898 14.4157 21.9774L14.2892 21.7559C13.2548 19.9263 11.5536 19.9263 10.5076 21.7559L10.3812 21.9774C9.84097 22.898 8.66855 23.2243 7.76051 22.6766L5.772 21.5229C4.72602 20.9169 4.3697 19.5534 4.9674 18.5045C6.01338 16.6748 5.16281 15.1831 3.08235 15.1831C1.87545 15.1831 0.898438 14.1809 0.898438 12.9689Z" stroke="#5744FF" stroke-width="1.8" stroke-miterlimit="10" stroke-linecap="round" stroke-linejoin="round"/>
</svg>
